<svg width="36" height="36" viewBox="0 0 36 36" fill="none" xmlns="http://www.w3.org/2000/svg">
<mask id="mask0" mask-type="alpha" maskUnits="userSpaceOnUse" x="0" y="0" width="36" height="36">
<circle cx="18" cy="18" r="18" fill="#24B47E"/>
</mask>
<g mask="url(#mask0)">
<path d="M19.4848 -0.019081C15.0121 -0.984708 6.47425 -1.21205 0.996115 1.95451C0.996115 1.95451 -4.55957 16.8452 17.1818 16.2818C38.9231 15.7184 45.1636 1.42951 45.1636 1.42951C45.1636 1.42951 33.6938 3.04852 19.4848 -0.019081Z" fill="#516C7D"/>
<path d="M15.2182 7.64653C10.9428 6.71936 2.7818 6.50107 -2.45457 9.54153C-2.45457 9.54153 -3.68183 24.0602 17.1 23.5192C37.8818 22.9783 39.7636 9.03744 39.7636 9.03744C39.7636 9.03744 28.8 10.592 15.2182 7.64653Z" fill="#475965"/>
<path d="M16.3637 13.9092C12.0884 12.9821 3.92731 12.7638 -1.30905 15.8042C-1.30905 15.8042 -2.29086 30.3165 18.2455 29.7819C38.7819 29.2474 40.9091 15.3001 40.9091 15.3001C40.9091 15.3001 29.9455 16.8547 16.3637 13.9092Z" fill="#2C3840"/>
<path d="M21.2183 19.961C17.2362 18.1497 14.1643 17.0794 -1.30908 22.5133C-1.30908 22.5133 2.43076 36.9026 18.2455 36.491C34.0602 36.0793 35.9182 24.4637 35.9182 24.4637C35.9182 24.4637 33.1243 25.3764 21.2183 19.961Z" fill="#1D2022"/>
<path d="M18.5727 24.8727C15.709 23.0727 13.5 22.0091 2.37268 27.4091C2.37268 27.4091 7.19995 36.6545 18.5727 36.2455C29.9454 35.8364 31.909 29.6182 31.909 29.6182C31.909 29.6182 27.1345 30.2544 18.5727 24.8727Z" fill="black"/>
</g>
</svg>
